<?xml version="1.0" encoding="utf-8"?>
<!-- Generator: Adobe Illustrator 27.9.0, SVG Export Plug-In . SVG Version: 6.00 Build 0)  -->
<svg version="1.1" id="Layer_1" xmlns="http://www.w3.org/2000/svg" xmlns:xlink="http://www.w3.org/1999/xlink" x="0px" y="0px"
	 viewBox="0 0 176 52" style="enable-background:new 0 0 176 52;" xml:space="preserve">
<style type="text/css">
	.st0{fill-rule:evenodd;clip-rule:evenodd;fill:#FFFFFF;}
</style>
<g>
	<path class="st0" d="M0,16.4v0.1l29.8,13.8l29.9-13.8v0L29.8,2.6L0,16.4z M10.7,16.4l19-8.8l19,8.8l-19,8.8
		C29.8,25.2,10.7,16.4,10.7,16.4z M29.8,35.6L0,22.1v5l29.8,13.6L59.6,27v-5L29.8,35.6z M29.8,45.8L0,32.2v5l29.8,13.6l29.9-13.6v-5
		L29.8,45.8z M169.2,26.2c0-2.2-0.8-4.3-2.3-5.9c-0.7-0.7-1.5-1.3-2.5-1.8c-0.9-0.4-2-0.6-3-0.6c-1,0-2.1,0.2-3,0.6
		c-0.9,0.4-1.8,1-2.5,1.8c-1.5,1.6-2.3,3.7-2.3,5.9c0,2.2,0.8,4.3,2.3,5.9c0.7,0.7,1.5,1.3,2.5,1.8c0.9,0.4,2,0.6,3,0.6
		c1,0,2.1-0.2,3-0.6c0.9-0.4,1.8-1,2.5-1.8C168.4,30.5,169.2,28.4,169.2,26.2L169.2,26.2z M176,26.2c0,2-0.4,3.9-1.1,5.7
		c-0.7,1.7-1.8,3.2-3.1,4.5c-1.3,1.3-2.9,2.3-4.6,3c-1.8,0.7-3.7,1.1-5.7,1.1s-3.9-0.4-5.7-1.1c-1.7-0.7-3.3-1.7-4.6-3
		c-1.3-1.3-2.4-2.8-3.1-4.5c-0.8-1.7-1.1-3.6-1.1-5.6c0-2,0.4-3.8,1.2-5.6c0.7-1.7,1.8-3.3,3.1-4.6c1.3-1.3,2.9-2.3,4.6-3.1
		c1.8-0.7,3.6-1.1,5.6-1.1c2,0,3.9,0.4,5.7,1.1c1.8,0.7,3.3,1.7,4.6,3c1.3,1.3,2.4,2.8,3.1,4.5C175.6,22.3,176,24.2,176,26.2
		L176,26.2z M144.6,39.7c-0.6,0.3-1.2,0.5-1.8,0.6c-0.7,0.2-1.4,0.2-2.1,0.2c-1,0-2-0.1-2.9-0.4c-0.9-0.2-1.7-0.7-2.4-1.3
		c-0.7-0.6-1.2-1.4-1.6-2.3c-0.4-1-0.6-2.1-0.6-3.5V0.7h6.9v31.2c0,1.1,0.2,1.9,0.7,2.3c0.5,0.4,1,0.6,1.6,0.6
		c0.8,0,1.5-0.2,2.3-0.7L144.6,39.7L144.6,39.7z M130,12.6l-12.2,32.4c-0.9,2.4-2.1,4.2-3.6,5.2c-1.5,1.1-3.2,1.6-5.3,1.6
		c-0.3,0-0.7,0-1-0.1c-0.4,0-0.7-0.1-1.1-0.2l-2.3-6.3c0.5,0.3,1.1,0.4,1.7,0.6c0.5,0.1,1.1,0.2,1.6,0.2c1.1,0,2-0.2,2.9-0.7
		c0.9-0.5,1.6-1.4,2-2.7l0.9-2.7l-10.5-27.2h7.4l6.3,17.5l5.9-17.5C122.7,12.5,130,12.5,130,12.6z M101.5,8.4H83.8v8.8h17.5v5.9
		H83.8v16.7h-7.2V2.2h24.9L101.5,8.4L101.5,8.4z"/>
</g>
</svg>
